<?xml version="1.0" encoding="UTF-8" standalone="no"?>
<!-- Created with Inkscape (http://www.inkscape.org/) -->

<svg
   version="1.1"
   id="svg9"
   width="263.61938"
   height="183.24339"
   viewBox="0 0 263.61938 183.24339"
   xmlns="http://www.w3.org/2000/svg"
   xmlns:svg="http://www.w3.org/2000/svg">
  <defs
     id="defs13" />
  <g
     id="g15"
     transform="translate(-86.154573,-147.76949)">
    <path
       id="path231-9"
       style="fill:#3c4ccc;fill-opacity:1;stroke-width:1.06404"
       d="m 213.52047,172.41953 c -5.47159,0.0527 -12.16667,0.53012 -19.9746,1.83398 -26.93544,4.49802 -35.63057,26.39349 -36.89649,31.77344 -3.53387,11.39936 -6.42529,22.52934 -9.06055,33.60937 -2.30472,9.58429 -4.71006,19.61622 -6.81836,28.35157 -10.18106,28.71748 -37.3789,37.29882 -37.3789,37.29882 0,0 13.45635,3.70609 37.25195,-0.26757 26.93542,-4.49802 35.63057,-26.39351 36.89649,-31.77344 3.53385,-11.39936 6.4253,-22.52933 9.06054,-33.60938 2.30474,-9.58429 4.70811,-19.61816 6.81641,-28.35351 10.18108,-28.71747 37.38086,-37.29688 37.38086,-37.29688 0,0 -5.25573,-1.44912 -15.00781,-1.56445 -0.73141,-0.009 -1.48788,-0.009 -2.26954,-0.002 z m -53.0957,52.85547 h 22.3125 l -0.89062,3.96093 h -17.625 l -2.36719,10.125 h 15.16406 l -0.91406,3.9375 h -15.14063 l -3.91406,16.875 h -4.6875 z" />
    <path
       d="m 217.0502,260.17316 h -22.10156 l 8.0625,-34.89844 h 4.6875 l -7.14844,30.9375 h 17.41406 z"
       style="font-style:italic;font-size:48px;-inkscape-font-specification:'sans-serif Italic';letter-spacing:15px;fill:#3c4ccc"
       id="path10705" />
    <path
       d="m 271.65958,237.62628 q 0,4.54688 -1.38282,8.76563 -1.35937,4.21875 -3.96093,7.42968 -2.67188,3.30469 -6.42188,5.20313 -3.75,1.875 -8.46094,1.875 -6.23437,0 -9.75,-3.39844 -3.51562,-3.42187 -3.51562,-9.70312 0,-4.78125 1.40625,-8.92969 1.40625,-4.14844 4.05469,-7.40625 2.57812,-3.14063 6.375,-5.01563 3.82031,-1.89843 8.36718,-1.89843 6.21094,0 9.75,3.39843 3.53907,3.375 3.53907,9.67969 z m -8.88282,13.875 q 1.96875,-2.67187 2.97657,-5.95312 1.00781,-3.30469 1.00781,-7.26563 0,-4.78125 -2.41406,-7.33594 -2.39063,-2.57812 -6.70313,-2.57812 -3.35156,0 -6.04687,1.54687 -2.69532,1.52344 -4.64063,4.14844 -1.875,2.57813 -2.88281,6 -1.00781,3.39844 -1.00781,7.00781 0,4.82813 2.39062,7.42969 2.41406,2.57813 6.75,2.57813 3.30469,0 6,-1.52344 2.71875,-1.52344 4.57031,-4.05469 z"
       style="font-style:italic;font-size:48px;-inkscape-font-specification:'sans-serif Italic';letter-spacing:15px;fill:#3c4ccc"
       id="path10707" />
    <path
       d="m 337.91739,225.27472 -16.75781,34.89844 h -5.36719 l -1.03125,-28.89844 -13.54688,28.89844 h -5.15625 l -1.42968,-34.89844 h 4.71093 l 0.9375,28.96875 13.66407,-28.96875 h 4.71093 l 0.9375,29.25 13.75782,-29.25 z"
       style="font-style:italic;font-size:48px;-inkscape-font-specification:'sans-serif Italic';letter-spacing:15px;fill:#3c4ccc"
       id="path10709" />
    <rect
       style="fill:#ffffff;fill-opacity:0;stroke:none;stroke-width:0.932321;stroke-opacity:1"
       id="rect3304"
       width="294.70895"
       height="183.24341"
       x="76.537987"
       y="147.76949" />
    <rect
       style="fill:none;fill-opacity:1;stroke:none;stroke-width:0.961604;stroke-opacity:1"
       id="rect10717"
       width="263.61942"
       height="183.24341"
       x="86.154556"
       y="147.76949" />
  </g>
</svg>
