<?xml version="1.0" encoding="UTF-8" standalone="no"?>
<!-- Created with Inkscape (http://www.inkscape.org/) -->

<svg
   version="1.1"
   id="svg9"
   width="168.8103"
   height="191.31866"
   viewBox="0 0 168.8103 191.31866"
   sodipodi:docname="flow_new_inkscape.svg"
   inkscape:version="1.2.2 (732a01da63, 2022-12-09)"
   xmlns:inkscape="http://www.inkscape.org/namespaces/inkscape"
   xmlns:sodipodi="http://sodipodi.sourceforge.net/DTD/sodipodi-0.dtd"
   xmlns="http://www.w3.org/2000/svg"
   xmlns:svg="http://www.w3.org/2000/svg">
  <defs
     id="defs13" />
  <sodipodi:namedview
     id="namedview11"
     pagecolor="#ffffff"
     bordercolor="#000000"
     borderopacity="0.25"
     inkscape:showpageshadow="2"
     inkscape:pageopacity="0.0"
     inkscape:pagecheckerboard="true"
     inkscape:deskcolor="#d1d1d1"
     showgrid="true"
     inkscape:zoom="1.5514419"
     inkscape:cx="1272.3648"
     inkscape:cy="812.79228"
     inkscape:window-width="1920"
     inkscape:window-height="1017"
     inkscape:window-x="1912"
     inkscape:window-y="-8"
     inkscape:window-maximized="1"
     inkscape:current-layer="g15"
     showguides="false">
    <inkscape:grid
       type="xygrid"
       id="grid784" />
  </sodipodi:namedview>
  <g
     inkscape:groupmode="layer"
     inkscape:label="Image"
     id="g15"
     transform="translate(-366.74642,-636.19054)">
    <rect
       style="fill:none;stroke-width:1.02587"
       id="rect460"
       width="210.11179"
       height="237.914"
       x="240.17377"
       y="616.80347"
       inkscape:export-filename="flow_new.svg"
       inkscape:export-xdpi="96"
       inkscape:export-ydpi="96" />
    <path
       id="path231-9-80-1"
       style="fill:#1100ee;fill-opacity:1;stroke-width:0.885995"
       d="m 486.68864,659.00694 c -4.40617,0.0453 -9.79763,0.45643 -16.08521,1.57905 -21.69064,3.87274 -28.6927,22.72453 -29.71212,27.35659 -2.84576,9.81473 -5.17418,19.39756 -7.2963,28.93734 -1.85595,8.25197 -3.79294,16.88938 -5.49071,24.41041 -8.19863,24.72544 -30.1006,32.11392 -30.1006,32.11392 0,0 15.54711,1.40888 32.59364,-8.5548 18.09977,-10.28718 24.22153,-18.95375 28.70354,-46.02716 0.81786,-11.85922 6.38663,-22.44067 9.64157,-31.07162 8.19865,-24.72543 31.65934,-27.39506 31.65934,-27.39506 0,0 -4.23236,-1.24769 -12.08553,-1.34698 -0.58899,-0.008 -1.19816,-0.008 -1.82762,-0.002 z"
       sodipodi:nodetypes="csccccccccccc"
       inkscape:export-filename="..\resources\flow.svg"
       inkscape:export-xdpi="96"
       inkscape:export-ydpi="96" />
    <path
       id="path231-9-80-1-4"
       style="fill:#1100ee;fill-opacity:1;stroke-width:0.545087"
       d="m 429.2985,675.07514 c -11.09147,8.06106 -15.56026,16.90595 -16.18743,19.75573 -3.18674,11.24782 -4.13277,15.61298 -7.22313,24.38926 -5.044,15.21172 -16.10454,29.73762 -16.10454,29.73762 0,0 3.25402,-1.0879 12.82282,-8.74548 9.64298,-7.7169 13.95084,-16.56182 14.57802,-19.41158 3.18776,-11.24781 4.29273,-14.06484 6.73934,-24.90651 7.29719,-20.7181 18.19774,-23.36983 18.19774,-23.36983 -5.67395,-0.22598 -9.67516,0.41232 -12.82282,2.55079 z"
       sodipodi:nodetypes="ccccscccc"
       inkscape:export-filename="flow_new.svg"
       inkscape:export-xdpi="96"
       inkscape:export-ydpi="96" />
    <path
       id="path231-9-80-1-4-1"
       style="fill:#1100ee;fill-opacity:1;stroke-width:0.506185"
       d="m 496.65715,702.8603 c -10.82434,1.42154 -15.42044,13.53785 -16.20773,16.55188 -3.67148,11.83528 -2.4355,6.83497 -5.47868,18.29593 -5.54756,15.94332 -13.69204,26.49038 -13.69204,26.49038 0,0 3.56903,-3.24071 12.9025,-7.09629 9.79618,-4.04672 14.16422,-11.82109 14.95153,-14.83513 3.67228,-11.83521 2.43477,-6.83564 5.478,-18.29711 5.54756,-15.94333 17.79432,-25.51672 17.79432,-25.51672 -6.24614,2.10246 -9.50864,3.641 -15.7479,4.40706 z"
       sodipodi:nodetypes="ccccscccc"
       inkscape:export-filename="flow_new.svg"
       inkscape:export-xdpi="96"
       inkscape:export-ydpi="96" />
    <path
       id="path231-9-80-1-4-1-3"
       style="fill:#1100ee;fill-opacity:1;stroke-width:0.236067"
       d="m 496.0525,676.2707 c -9.46954,4.86974 -11.04169,11.56346 -12.57182,19.31877 0,0 2.0187,-3.88811 6.23167,-5.7459 12.17001,-8.22943 1.69511,-5.0047 13.4485,-15.69642 -2.81941,1.01308 -4.29206,1.75442 -7.10835,2.12355 z"
       sodipodi:nodetypes="ccccc"
       inkscape:export-filename="flow_new.svg"
       inkscape:export-xdpi="96"
       inkscape:export-ydpi="96" />
    <rect
       style="fill:none;fill-opacity:1;stroke-width:1.03567"
       id="rect1282"
       width="168.81038"
       height="191.31866"
       x="366.7464"
       y="636.19049" />
    <g
       aria-label="FLOW"
       id="text438-5"
       style="font-size:17.3333px;letter-spacing:22px;fill:#1100ee">
      <path
         d="m 400.15076,788.43341 h -6.37304 v 3.55468 h 5.4759 v 1.48958 h -5.4759 v 6.06835 h -1.67577 v -12.60219 h 8.04881 z"
         id="path1978" />
      <path
         d="m 432.03616,799.54602 h -7.97265 v -12.60219 h 1.67578 v 11.11261 h 6.29687 z"
         id="path1980" />
      <path
         d="m 464.93717,788.39109 q 0.77019,0.84636 1.17643,2.07357 0.41472,1.22721 0.41472,2.7845 0,1.55729 -0.42318,2.79296 -0.41471,1.22721 -1.16797,2.04817 -0.77864,0.85482 -1.84504,1.28646 -1.05794,0.43164 -2.42057,0.43164 -1.32878,0 -2.42057,-0.4401 -1.08333,-0.44011 -1.84505,-1.278 -0.76172,-0.83788 -1.17643,-2.05663 -0.40625,-1.21875 -0.40625,-2.7845 0,-1.54036 0.40625,-2.75911 0.40625,-1.22721 1.18489,-2.09896 0.74479,-0.82942 1.84505,-1.26952 1.10872,-0.44011 2.41211,-0.44011 1.35416,0 2.42903,0.44857 1.08333,0.4401 1.83658,1.26106 z m -0.15234,4.85807 q 0,-2.45442 -1.10026,-3.7832 -1.10026,-1.33724 -3.00455,-1.33724 -1.92122,0 -3.02148,1.33724 -1.09179,1.32878 -1.09179,3.7832 0,2.47981 1.11718,3.80012 1.11719,1.31185 2.99609,1.31185 1.8789,0 2.98763,-1.31185 1.11718,-1.32031 1.11718,-3.80012 z"
         id="path1982" />
      <path
         d="m 505.85316,786.94383 -3.27539,12.60219 h -1.88736 l -2.64909,-10.46092 -2.58983,10.46092 h -1.84505 l -3.33463,-12.60219 h 1.71809 l 2.64909,10.47785 2.60676,-10.47785 h 1.70117 l 2.63216,10.57941 2.63215,-10.57941 z"
         id="path1984" />
    </g>
  </g>
</svg>
