<?xml version="1.0" encoding="UTF-8" standalone="no"?>
<!-- Created with Inkscape (http://www.inkscape.org/) -->

<svg
   version="1.1"
   id="svg9"
   width="79.45343"
   height="79.45385"
   viewBox="0 0 79.45343 79.45385"
   xmlns="http://www.w3.org/2000/svg"
   xmlns:svg="http://www.w3.org/2000/svg">
  <defs
     id="defs13" />
  <g
     id="g15"
     transform="translate(-162.90433,9.8522166)">
    <path
       id="path231-9-0"
       style="fill:#3c4ccc;fill-opacity:1;stroke-width:0.470473"
       d="m 223.15852,0.1545194 c -2.4193,0.0233017 -5.37957,0.23439625 -8.8319,0.81090701 -11.9097,1.98883079 -15.75431,11.67006559 -16.31404,14.04884759 -1.56253,5.040307 -2.84099,9.961505 -4.00619,14.860617 -1.01905,4.237761 -2.08259,8.673448 -3.01478,12.535844 -4.50163,12.697634 -16.52735,16.491933 -16.52735,16.491933 0,0 5.94982,1.638673 16.47121,-0.118308 11.90968,-1.988831 15.7543,-11.670074 16.31404,-14.048848 1.56252,-5.040306 2.84099,-9.9615 4.00618,-14.860621 1.01906,-4.237761 2.08172,-8.674306 3.01393,-12.536702 4.50163,-12.6976289 16.5282,-16.49107495 16.5282,-16.49107495 0,0 -2.32386,-0.64073848 -6.63581,-0.69173244 -0.32339,-0.003979 -0.65787,-0.003979 -1.00349,-8.8431e-4 z" />
    <rect
       style="fill:none;fill-opacity:1;stroke:none;stroke-width:0.581554;stroke-opacity:1"
       id="rect10912"
       width="79.453453"
       height="79.45385"
       x="162.90431"
       y="-9.8522158" />
  </g>
</svg>
