<?xml version="1.0" encoding="UTF-8" standalone="no"?>
<!-- Created with Inkscape (http://www.inkscape.org/) -->

<svg
   version="1.1"
   id="svg9"
   width="210.11169"
   height="237.91396"
   viewBox="0 0 210.1117 237.91395"
   sodipodi:docname="flow_new_inkscape.svg.2023_08_07_09_02_43.0.svg"
   inkscape:version="1.2.2 (732a01da63, 2022-12-09)"
   xmlns:inkscape="http://www.inkscape.org/namespaces/inkscape"
   xmlns:sodipodi="http://sodipodi.sourceforge.net/DTD/sodipodi-0.dtd"
   xmlns="http://www.w3.org/2000/svg"
   xmlns:svg="http://www.w3.org/2000/svg">
  <defs
     id="defs13" />
  <sodipodi:namedview
     id="namedview11"
     pagecolor="#ffffff"
     bordercolor="#000000"
     borderopacity="0.25"
     inkscape:showpageshadow="2"
     inkscape:pageopacity="0.0"
     inkscape:pagecheckerboard="true"
     inkscape:deskcolor="#d1d1d1"
     showgrid="false"
     inkscape:zoom="2.1940701"
     inkscape:cx="1134.8771"
     inkscape:cy="937.98279"
     inkscape:window-width="1920"
     inkscape:window-height="1017"
     inkscape:window-x="-8"
     inkscape:window-y="-8"
     inkscape:window-maximized="1"
     inkscape:current-layer="g15" />
  <g
     inkscape:groupmode="layer"
     inkscape:label="Image"
     id="g15"
     transform="translate(-240.17379,-616.80345)">
    <rect
       style="fill:none;stroke-width:1.02587"
       id="rect460"
       width="210.11179"
       height="237.914"
       x="240.17377"
       y="616.80347" />
    <path
       id="path231-9-80-1"
       style="fill:#1100ee;fill-opacity:1;stroke-width:1.06404"
       d="m 393.23122,646.18655 c -5.47159,0.0527 -12.16669,0.53013 -19.97461,1.83399 -26.93542,4.49801 -35.63057,26.39349 -36.89649,31.77343 -3.53386,11.39935 -6.42529,22.52936 -9.06054,33.60938 -2.30472,9.58428 -4.71007,19.61622 -6.81836,28.35156 -10.18105,28.71745 -37.37891,37.29883 -37.37891,37.29883 0,0 13.45638,3.70608 37.25195,-0.26758 26.9354,-4.49801 35.63057,-26.39351 36.89649,-31.77344 3.53384,-11.39934 6.42531,-22.52933 9.06054,-33.60937 2.30474,-9.58428 4.70811,-19.61818 6.81641,-28.35352 10.18107,-28.71744 37.38086,-37.29687 37.38086,-37.29687 0,0 -5.25574,-1.44912 -15.00781,-1.56445 -0.73141,-0.009 -1.48787,-0.009 -2.26953,-0.002 z"
       sodipodi:nodetypes="csccccsccccccc"
       inkscape:export-filename="flow_new.svg"
       inkscape:export-xdpi="96"
       inkscape:export-ydpi="96" />
    <path
       id="path231-9-80-1-4"
       style="fill:#1100ee;fill-opacity:1;stroke-width:0.654625"
       d="m 321.96417,664.84902 c -13.77337,9.36255 -19.32271,19.6355 -20.10153,22.94538 -3.95729,13.06381 -5.13208,18.13374 -8.96968,28.32699 -6.26364,17.66771 -19.99861,34.53888 -19.99861,34.53888 0,0 4.04084,-1.26356 15.92337,-10.15746 11.97465,-8.96284 17.32414,-19.2358 18.10297,-22.54567 3.95857,-13.06382 5.33072,-16.33567 8.36891,-28.92776 9.06165,-24.06312 22.59795,-27.14298 22.59795,-27.14298 -7.04591,-0.26245 -12.01461,0.47889 -15.92338,2.96262 z"
       sodipodi:nodetypes="ccccscccc"
       inkscape:export-filename="flow_new.svg"
       inkscape:export-xdpi="96"
       inkscape:export-ydpi="96" />
    <path
       id="path231-9-80-1-4-1"
       style="fill:#1100ee;fill-opacity:1;stroke-width:0.607906"
       d="m 407.05836,682.84872 c -13.20754,2.99418 -17.47112,17.56926 -18.09185,21.1505 -3.15401,14.13488 -2.21089,8.20234 -4.63235,21.82623 -4.99218,19.11625 -13.82306,32.32101 -13.82306,32.32101 0,0 4.03111,-4.19049 15.11242,-9.81124 11.63066,-5.89938 16.11952,-15.42858 16.74026,-19.00982 3.15502,-14.13489 2.20992,-8.20303 4.63138,-21.82752 4.9922,-19.11625 19.00517,-31.70808 19.00517,-31.70808 -7.47162,3.20943 -11.3228,5.39466 -18.94197,7.05892 z"
       sodipodi:nodetypes="ccccscccc"
       inkscape:export-filename="flow_new.svg"
       inkscape:export-xdpi="96"
       inkscape:export-ydpi="96" />
    <text
       xml:space="preserve"
       style="font-size:37.2503px;letter-spacing:17.5309px;fill:#3c4ccc;fill-opacity:1;stroke-width:0.873053"
       x="263.96405"
       y="832.89917"
       id="text420-9-0"><tspan
         sodipodi:role="line"
         id="tspan418-0-5"
         x="263.96405"
         y="832.89917"
         style="font-size:37.2503px;fill:#000000;fill-opacity:1;stroke-width:0.873053">FLOW</tspan></text>
  </g>
</svg>
