<?xml version="1.0" encoding="UTF-8" standalone="no"?>
<!-- Created with Inkscape (http://www.inkscape.org/) -->

<svg
   version="1.1"
   id="svg9"
   width="210.11169"
   height="237.91396"
   viewBox="0 0 210.1117 237.91395"
   sodipodi:docname="flow_new_inkscape.svg.2023_08_07_09_02_43.0.svg"
   inkscape:version="1.2.2 (732a01da63, 2022-12-09)"
   xmlns:inkscape="http://www.inkscape.org/namespaces/inkscape"
   xmlns:sodipodi="http://sodipodi.sourceforge.net/DTD/sodipodi-0.dtd"
   xmlns="http://www.w3.org/2000/svg"
   xmlns:svg="http://www.w3.org/2000/svg">
  <defs
     id="defs13" />
  <sodipodi:namedview
     id="namedview11"
     pagecolor="#ffffff"
     bordercolor="#000000"
     borderopacity="0.25"
     inkscape:showpageshadow="2"
     inkscape:pageopacity="0.0"
     inkscape:pagecheckerboard="true"
     inkscape:deskcolor="#d1d1d1"
     showgrid="false"
     inkscape:zoom="1.0970351"
     inkscape:cx="1055.5725"
     inkscape:cy="907.90171"
     inkscape:window-width="1920"
     inkscape:window-height="1017"
     inkscape:window-x="-8"
     inkscape:window-y="-8"
     inkscape:window-maximized="1"
     inkscape:current-layer="g15" />
  <g
     inkscape:groupmode="layer"
     inkscape:label="Image"
     id="g15"
     transform="translate(-240.17379,-616.80345)">
    <rect
       style="fill:none;stroke-width:1.02587"
       id="rect460"
       width="210.11179"
       height="237.914"
       x="240.17377"
       y="616.80347"
       inkscape:export-filename="flow_new.svg"
       inkscape:export-xdpi="96"
       inkscape:export-ydpi="96" />
    <path
       id="path231-9-80-1"
       style="fill:#1100ee;fill-opacity:1;stroke-width:1.06404"
       d="m 393.23122,646.18655 c -5.47159,0.0527 -12.16669,0.53013 -19.97461,1.83399 -26.93542,4.49801 -35.63057,26.39349 -36.89649,31.77343 -3.53386,11.39935 -6.42529,22.52936 -9.06054,33.60938 -2.30472,9.58428 -4.71007,19.61622 -6.81836,28.35156 -10.18105,28.71745 -37.37891,37.29883 -37.37891,37.29883 0,0 19.30639,1.63635 40.47476,-9.93601 22.47629,-11.94808 30.07828,-22.0139 35.64404,-53.45841 1.01562,-13.77394 7.93092,-26.0638 11.9729,-36.08826 10.18107,-28.71744 39.31455,-31.8181 39.31455,-31.8181 0,0 -5.25574,-1.44912 -15.00781,-1.56445 -0.73141,-0.009 -1.48787,-0.009 -2.26953,-0.002 z"
       sodipodi:nodetypes="csccccccccccc"
       inkscape:export-filename="flow_new.svg"
       inkscape:export-xdpi="96"
       inkscape:export-ydpi="96" />
    <path
       id="path231-9-80-1-4"
       style="fill:#1100ee;fill-opacity:1;stroke-width:0.654625"
       d="m 321.96417,664.84902 c -13.77337,9.36255 -19.32271,19.6355 -20.10153,22.94538 -3.95729,13.06381 -5.13208,18.13374 -8.96968,28.32699 -6.26364,17.66771 -19.99861,34.53888 -19.99861,34.53888 0,0 4.04084,-1.26356 15.92337,-10.15746 11.97465,-8.96284 17.32414,-19.2358 18.10297,-22.54567 3.95857,-13.06382 5.33072,-16.33567 8.36891,-28.92776 9.06165,-24.06312 22.59795,-27.14298 22.59795,-27.14298 -7.04591,-0.26245 -12.01461,0.47889 -15.92338,2.96262 z"
       sodipodi:nodetypes="ccccscccc"
       inkscape:export-filename="flow_new.svg"
       inkscape:export-xdpi="96"
       inkscape:export-ydpi="96" />
    <path
       id="path231-9-80-1-4-1"
       style="fill:#1100ee;fill-opacity:1;stroke-width:0.607906"
       d="m 405.61011,697.1202 c -13.44166,1.65105 -19.1491,15.72358 -20.12676,19.22426 -4.55924,13.74612 -3.0244,7.93848 -6.80342,21.24986 -6.88895,18.51743 -17.00276,30.76736 -17.00276,30.76736 0,0 4.43202,-3.76394 16.02232,-8.24202 12.16488,-4.70007 17.58911,-13.72964 18.56679,-17.23032 4.56024,-13.74604 3.0235,-7.93926 6.80258,-21.25124 6.88896,-18.51743 22.09698,-29.6365 22.09698,-29.6365 -7.75645,2.44192 -11.80783,4.22886 -19.55573,5.1186 z"
       sodipodi:nodetypes="ccccscccc"
       inkscape:export-filename="flow_new.svg"
       inkscape:export-xdpi="96"
       inkscape:export-ydpi="96" />
    <path
       id="path231-9-80-1-4-1-3"
       style="fill:#1100ee;fill-opacity:1;stroke-width:0.319334"
       d="m 403.41372,666.46003 c -13.68495,6.16603 -15.95696,14.64159 -18.16823,24.46133 0,0 2.91733,-4.92311 9.00573,-7.27544 17.58755,-10.42006 2.44971,-6.33692 19.43517,-19.8747 -4.07448,1.28275 -6.20268,2.22143 -10.27267,2.68881 z"
       sodipodi:nodetypes="ccccc"
       inkscape:export-filename="flow_new.svg"
       inkscape:export-xdpi="96"
       inkscape:export-ydpi="96" />
    <g
       aria-label="FLOW"
       id="text420-9-9"
       style="font-size:42.6667px;letter-spacing:20.08px;fill:#3c4ccc">
      <path
         d="m 277.51858,805.04443 h -15.68751 v 8.75001 h 13.47918 v 3.66667 h -13.47918 v 14.93751 h -4.125 v -31.02086 h 19.81251 z"
         id="path1585" />
      <path
         d="m 321.93194,832.39862 h -19.62502 v -31.02086 h 4.125 v 27.35419 h 15.50002 z"
         id="path1587" />
      <path
         d="m 368.84529,804.94027 q 1.89584,2.08333 2.89584,5.10417 1.02083,3.02083 1.02083,6.85417 0,3.83334 -1.04167,6.875 -1.02083,3.02084 -2.875,5.04167 -1.91667,2.10417 -4.54167,3.16667 -2.60417,1.0625 -5.95834,1.0625 -3.27083,0 -5.95833,-1.08333 -2.66667,-1.08333 -4.54167,-3.14584 -1.87501,-2.0625 -2.89584,-5.0625 -1,-3 -1,-6.85417 0,-3.79167 1,-6.79167 1,-3.02084 2.91667,-5.16667 1.83333,-2.04167 4.54167,-3.12501 2.72917,-1.08333 5.9375,-1.08333 3.33334,0 5.97917,1.10417 2.66667,1.08333 4.52084,3.10417 z m -0.375,11.95834 q 0,-6.04167 -2.70833,-9.31251 -2.70834,-3.29167 -7.39584,-3.29167 -4.72917,0 -7.43751,3.29167 -2.6875,3.27084 -2.6875,9.31251 0,6.10417 2.75,9.35417 2.75,3.22917 7.37501,3.22917 4.625,0 7.35417,-3.22917 2.75,-3.25 2.75,-9.35417 z"
         id="path1589" />
      <path
         d="m 435.48783,801.37776 -8.06251,31.02086 h -4.64583 l -6.52084,-25.75002 -6.37501,25.75002 h -4.54167 l -8.20834,-31.02086 h 4.22917 l 6.52084,25.79169 6.41667,-25.79169 h 4.18751 l 6.47917,26.04169 6.47917,-26.04169 z"
         id="path1591" />
    </g>
  </g>
</svg>
