<?xml version="1.0" encoding="UTF-8" standalone="no"?>
<!-- Created with Inkscape (http://www.inkscape.org/) -->

<svg
   version="1.1"
   id="svg9"
   width="162.42957"
   height="170.80884"
   viewBox="0 0 162.42957 170.80883"
   sodipodi:docname="flow_new_inkscape.svg"
   inkscape:version="1.2.2 (732a01da63, 2022-12-09)"
   xmlns:inkscape="http://www.inkscape.org/namespaces/inkscape"
   xmlns:sodipodi="http://sodipodi.sourceforge.net/DTD/sodipodi-0.dtd"
   xmlns="http://www.w3.org/2000/svg"
   xmlns:svg="http://www.w3.org/2000/svg">
  <defs
     id="defs13" />
  <sodipodi:namedview
     id="namedview11"
     pagecolor="#ffffff"
     bordercolor="#000000"
     borderopacity="0.25"
     inkscape:showpageshadow="2"
     inkscape:pageopacity="0.0"
     inkscape:pagecheckerboard="true"
     inkscape:deskcolor="#d1d1d1"
     showgrid="true"
     inkscape:zoom="1.0970351"
     inkscape:cx="1231.5012"
     inkscape:cy="855.94345"
     inkscape:window-width="1920"
     inkscape:window-height="1017"
     inkscape:window-x="1912"
     inkscape:window-y="-8"
     inkscape:window-maximized="1"
     inkscape:current-layer="g15"
     showguides="false">
    <inkscape:grid
       type="xygrid"
       id="grid784" />
  </sodipodi:namedview>
  <g
     inkscape:groupmode="layer"
     inkscape:label="Image"
     id="g15"
     transform="translate(-369.93685,-647.58482)">
    <rect
       style="fill:none;stroke-width:1.02587"
       id="rect460"
       width="210.11179"
       height="237.914"
       x="240.17377"
       y="616.80347"
       inkscape:export-filename="flow_new.svg"
       inkscape:export-xdpi="96"
       inkscape:export-ydpi="96" />
    <path
       id="path231-9-80-1"
       style="fill:#1100ee;fill-opacity:1;stroke-width:0.885995"
       d="m 486.68864,659.00694 c -4.40617,0.0453 -9.79763,0.45643 -16.08521,1.57905 -21.69064,3.87274 -28.6927,22.72453 -29.71212,27.35659 -2.84576,9.81473 -5.17418,19.39756 -7.2963,28.93734 -1.85595,8.25197 -3.79294,16.88938 -5.49071,24.41041 -8.19863,24.72544 -30.1006,32.11392 -30.1006,32.11392 0,0 15.54711,1.40888 32.59364,-8.5548 18.09977,-10.28718 24.22153,-18.95375 28.70354,-46.02716 0.81786,-11.85922 6.38663,-22.44067 9.64157,-31.07162 8.19865,-24.72543 31.65934,-27.39506 31.65934,-27.39506 0,0 -4.23236,-1.24769 -12.08553,-1.34698 -0.58899,-0.008 -1.19816,-0.008 -1.82762,-0.002 z"
       sodipodi:nodetypes="csccccccccccc"
       inkscape:export-filename="flow_new.svg"
       inkscape:export-xdpi="96"
       inkscape:export-ydpi="96" />
    <path
       id="path231-9-80-1-4"
       style="fill:#1100ee;fill-opacity:1;stroke-width:0.545087"
       d="m 429.2985,675.07514 c -11.09147,8.06106 -15.56026,16.90595 -16.18743,19.75573 -3.18674,11.24782 -4.13277,15.61298 -7.22313,24.38926 -5.044,15.21172 -16.10454,29.73762 -16.10454,29.73762 0,0 3.25402,-1.0879 12.82282,-8.74548 9.64298,-7.7169 13.95084,-16.56182 14.57802,-19.41158 3.18776,-11.24781 4.29273,-14.06484 6.73934,-24.90651 7.29719,-20.7181 18.19774,-23.36983 18.19774,-23.36983 -5.67395,-0.22598 -9.67516,0.41232 -12.82282,2.55079 z"
       sodipodi:nodetypes="ccccscccc"
       inkscape:export-filename="flow_new.svg"
       inkscape:export-xdpi="96"
       inkscape:export-ydpi="96" />
    <path
       id="path231-9-80-1-4-1"
       style="fill:#1100ee;fill-opacity:1;stroke-width:0.506185"
       d="m 496.65715,702.8603 c -10.82434,1.42154 -15.42044,13.53785 -16.20773,16.55188 -3.67148,11.83528 -2.4355,6.83497 -5.47868,18.29593 -5.54756,15.94332 -13.69204,26.49038 -13.69204,26.49038 0,0 3.56903,-3.24071 12.9025,-7.09629 9.79618,-4.04672 14.16422,-11.82109 14.95153,-14.83513 3.67228,-11.83521 2.43477,-6.83564 5.478,-18.29711 5.54756,-15.94333 17.79432,-25.51672 17.79432,-25.51672 -6.24614,2.10246 -9.50864,3.641 -15.7479,4.40706 z"
       sodipodi:nodetypes="ccccscccc"
       inkscape:export-filename="flow_new.svg"
       inkscape:export-xdpi="96"
       inkscape:export-ydpi="96" />
    <path
       id="path231-9-80-1-4-1-3"
       style="fill:#1100ee;fill-opacity:1;stroke-width:0.236067"
       d="m 496.0525,676.2707 c -9.46954,4.86974 -11.04169,11.56346 -12.57182,19.31877 0,0 2.0187,-3.88811 6.23167,-5.7459 12.17001,-8.22943 1.69511,-5.0047 13.4485,-15.69642 -2.81941,1.01308 -4.29206,1.75442 -7.10835,2.12355 z"
       sodipodi:nodetypes="ccccc"
       inkscape:export-filename="flow_new.svg"
       inkscape:export-xdpi="96"
       inkscape:export-ydpi="96" />
    <g
       aria-label="FLOW"
       id="text420-9-9"
       style="font-size:42.6667px;letter-spacing:20.08px;fill:#3c4ccc"
       transform="matrix(0.70419098,0,0,0.55349933,205.73845,346.27498)">
      <path
         d="m 277.51858,805.04443 h -15.68751 v 8.75001 h 13.47918 v 3.66667 h -13.47918 v 14.93751 h -4.125 v -31.02086 h 19.81251 z"
         id="path1585" />
      <path
         d="m 321.93194,832.39862 h -19.62502 v -31.02086 h 4.125 v 27.35419 h 15.50002 z"
         id="path1587" />
      <path
         d="m 368.84529,804.94027 q 1.89584,2.08333 2.89584,5.10417 1.02083,3.02083 1.02083,6.85417 0,3.83334 -1.04167,6.875 -1.02083,3.02084 -2.875,5.04167 -1.91667,2.10417 -4.54167,3.16667 -2.60417,1.0625 -5.95834,1.0625 -3.27083,0 -5.95833,-1.08333 -2.66667,-1.08333 -4.54167,-3.14584 -1.87501,-2.0625 -2.89584,-5.0625 -1,-3 -1,-6.85417 0,-3.79167 1,-6.79167 1,-3.02084 2.91667,-5.16667 1.83333,-2.04167 4.54167,-3.12501 2.72917,-1.08333 5.9375,-1.08333 3.33334,0 5.97917,1.10417 2.66667,1.08333 4.52084,3.10417 z m -0.375,11.95834 q 0,-6.04167 -2.70833,-9.31251 -2.70834,-3.29167 -7.39584,-3.29167 -4.72917,0 -7.43751,3.29167 -2.6875,3.27084 -2.6875,9.31251 0,6.10417 2.75,9.35417 2.75,3.22917 7.37501,3.22917 4.625,0 7.35417,-3.22917 2.75,-3.25 2.75,-9.35417 z"
         id="path1589" />
      <path
         d="m 435.48783,801.37776 -8.06251,31.02086 h -4.64583 l -6.52084,-25.75002 -6.37501,25.75002 h -4.54167 l -8.20834,-31.02086 h 4.22917 l 6.52084,25.79169 6.41667,-25.79169 h 4.18751 l 6.47917,26.04169 6.47917,-26.04169 z"
         id="path1591" />
    </g>
    <rect
       style="fill:none;fill-opacity:1;stroke-width:0.959914"
       id="rect1282"
       width="162.42955"
       height="170.80884"
       x="369.93683"
       y="647.58484" />
  </g>
</svg>
