<?xml version="1.0" encoding="UTF-8" standalone="no"?>
<!-- Created with Inkscape (http://www.inkscape.org/) -->

<svg
   version="1.1"
   id="svg9"
   width="294.88577"
   height="165.90173"
   viewBox="0 0 294.88577 165.90173"
   sodipodi:docname="flow_new_inkscape.svg"
   inkscape:version="1.2.2 (732a01da63, 2022-12-09)"
   xmlns:inkscape="http://www.inkscape.org/namespaces/inkscape"
   xmlns:sodipodi="http://sodipodi.sourceforge.net/DTD/sodipodi-0.dtd"
   xmlns="http://www.w3.org/2000/svg"
   xmlns:svg="http://www.w3.org/2000/svg">
  <defs
     id="defs13" />
  <sodipodi:namedview
     id="namedview11"
     pagecolor="#ffffff"
     bordercolor="#000000"
     borderopacity="0.25"
     inkscape:showpageshadow="2"
     inkscape:pageopacity="0.0"
     inkscape:pagecheckerboard="true"
     inkscape:deskcolor="#d1d1d1"
     showgrid="false"
     inkscape:zoom="2.1940701"
     inkscape:cx="503.40233"
     inkscape:cy="459.42014"
     inkscape:window-width="1920"
     inkscape:window-height="1017"
     inkscape:window-x="-8"
     inkscape:window-y="-8"
     inkscape:window-maximized="1"
     inkscape:current-layer="g15" />
  <g
     inkscape:groupmode="layer"
     inkscape:label="Image"
     id="g15"
     transform="translate(-75.384211,-338.90647)">
    <path
       id="path231-9-80"
       style="fill:#3c4ccc;fill-opacity:1;stroke-width:1.06404"
       d="m 201.15915,354.18515 c -5.47159,0.0527 -12.16669,0.53013 -19.97461,1.83399 -26.93542,4.49801 -35.63057,26.39349 -36.89649,31.77343 -3.53386,11.39935 -6.42529,22.52936 -9.06054,33.60938 -2.30472,9.58428 -4.71007,19.61622 -6.81836,28.35156 -10.18105,28.71745 -37.378909,37.29883 -37.378909,37.29883 0,0 13.456379,3.70608 37.251949,-0.26758 26.9354,-4.49801 35.63057,-26.39351 36.89649,-31.77344 3.53384,-11.39934 6.42531,-22.52933 9.06054,-33.60937 2.30474,-9.58428 4.70811,-19.61818 6.81641,-28.35352 10.18107,-28.71744 37.38086,-37.29687 37.38086,-37.29687 0,0 -5.25574,-1.44912 -15.00781,-1.56445 -0.73141,-0.009 -1.48787,-0.009 -2.26953,-0.002 z m -53.807,52.32422 h 19.8125 v 3.66602 h -15.6875 v 8.75 h 13.48046 v 3.66797 h -13.48046 v 14.9375 h -4.125 z"
       sodipodi:nodetypes="csccccsccccccccccccccccc"
       inkscape:export-filename="flow_new.svg.svg"
       inkscape:export-xdpi="96"
       inkscape:export-ydpi="96" />
    <rect
       style="fill:#ffffff;fill-opacity:0;stroke:none;stroke-width:0.932321;stroke-opacity:1"
       id="rect3304-8"
       width="294.70895"
       height="183.24341"
       x="-121.89866"
       y="493.08261"
       inkscape:export-filename="flow.svg"
       inkscape:export-xdpi="96"
       inkscape:export-ydpi="96" />
    <path
       d="m 215.38383,437.53049 h -19.62502 v -31.02086 h 4.125 v 27.35419 h 15.50002 z"
       id="path1119"
       style="font-size:42.6667px;letter-spacing:20.08px;fill:#3c4ccc" />
    <path
       d="m 262.29718,410.07213 q 1.89584,2.08334 2.89584,5.10417 1.02083,3.02084 1.02083,6.85418 0,3.83333 -1.04167,6.875 -1.02083,3.02084 -2.875,5.04167 -1.91667,2.10417 -4.54167,3.16667 -2.60417,1.0625 -5.95834,1.0625 -3.27083,0 -5.95833,-1.08333 -2.66667,-1.08334 -4.54167,-3.14584 -1.87501,-2.0625 -2.89584,-5.0625 -1,-3 -1,-6.85417 0,-3.79167 1,-6.79168 1,-3.02083 2.91667,-5.16667 1.83333,-2.04166 4.54167,-3.125 2.72917,-1.08333 5.9375,-1.08333 3.33334,0 5.97917,1.10416 2.66667,1.08334 4.52084,3.10417 z m -0.375,11.95835 q 0,-6.04168 -2.70833,-9.31251 -2.70834,-3.29167 -7.39584,-3.29167 -4.72917,0 -7.43751,3.29167 -2.6875,3.27083 -2.6875,9.31251 0,6.10417 2.75,9.35417 2.75,3.22917 7.37501,3.22917 4.625,0 7.35417,-3.22917 2.75,-3.25 2.75,-9.35417 z"
       id="path1121"
       style="font-size:42.6667px;letter-spacing:20.08px;fill:#3c4ccc" />
    <path
       d="m 327.6506,406.50963 -8.06251,31.02086 h -4.64583 l -6.52084,-25.75002 -6.37501,25.75002 h -4.54167 l -8.20834,-31.02086 h 4.22917 l 6.52084,25.79169 6.41667,-25.79169 h 4.18751 l 6.47917,26.04169 6.47917,-26.04169 z"
       id="path1123"
       style="font-size:42.6667px;letter-spacing:20.08px;fill:#3c4ccc" />
    <rect
       style="fill:none;fill-opacity:1;stroke-width:0.959443"
       id="rect1210"
       width="294.88574"
       height="165.90172"
       x="75.384224"
       y="338.90646" />
  </g>
</svg>
